# xmcd
#
# Track frame offsets:
#	150
#	24195
#	55059
#	87377
#	102543
#	128286
#
# Disc length: 2187 seconds
#
# Revision: 1
# Processed by: cddbd v1.5.2PL0 Copyright (c) Steve Scherf et al.
# Submitted via: audiograbber 1.83.01
#
DISCID=3e088906
DTITLE=Grateful Dead - 80-10-07 Warfield Theatre, San Francisco CA
DYEAR=1900
DGENRE=
TTITLE0=Cold Rain and Snow
TTITLE1=New Minglewood Blues
TTITLE2=Loser
TTITLE3=Me and My Uncle
TTITLE4=Big River
TTITLE5=Althea
EXTD=
EXTT0=
EXTT1=
EXTT2=
EXTT3=
EXTT4=
EXTT5=
PLAYORDER=
